<svg width="182" height="137" viewBox="0 0 182 137" fill="none" xmlns="http://www.w3.org/2000/svg">
<g filter="url(#filter0_d_108_2)">
<path d="M20.207 127.4C18.047 127.4 16.0204 127 14.127 126.2C12.2604 125.373 10.6204 124.24 9.20703 122.8C7.82036 121.333 6.72703 119.627 5.92703 117.68C5.1537 115.733 4.76703 113.627 4.76703 111.36C4.76703 109.12 5.1537 107.04 5.92703 105.12C6.72703 103.173 7.82036 101.48 9.20703 100.04C10.6204 98.5733 12.2604 97.4267 14.127 96.6C15.9937 95.7733 18.0204 95.36 20.207 95.36C22.2604 95.36 24.0204 95.6267 25.487 96.16C26.9804 96.6933 28.4737 97.5733 29.967 98.8C30.1804 98.96 30.3404 99.1333 30.447 99.32C30.5804 99.48 30.6604 99.6533 30.687 99.84C30.7404 100 30.767 100.2 30.767 100.44C30.767 100.947 30.5804 101.373 30.207 101.72C29.8604 102.04 29.4337 102.227 28.927 102.28C28.4204 102.307 27.927 102.133 27.447 101.76C26.4604 100.907 25.4337 100.253 24.367 99.8C23.327 99.3467 21.9404 99.12 20.207 99.12C18.6337 99.12 17.1537 99.44 15.767 100.08C14.3804 100.72 13.1537 101.6 12.087 102.72C11.047 103.84 10.2337 105.147 9.64703 106.64C9.06036 108.107 8.76703 109.68 8.76703 111.36C8.76703 113.067 9.06036 114.667 9.64703 116.16C10.2337 117.627 11.047 118.92 12.087 120.04C13.1537 121.16 14.3804 122.04 15.767 122.68C17.1537 123.293 18.6337 123.6 20.207 123.6C21.567 123.6 22.847 123.373 24.047 122.92C25.2737 122.44 26.447 121.787 27.567 120.96C28.047 120.613 28.5137 120.467 28.967 120.52C29.447 120.547 29.847 120.733 30.167 121.08C30.487 121.4 30.647 121.853 30.647 122.44C30.647 122.707 30.5937 122.973 30.487 123.24C30.3804 123.48 30.2204 123.707 30.007 123.92C28.567 125.067 27.0204 125.933 25.367 126.52C23.7404 127.107 22.0204 127.4 20.207 127.4ZM48.1008 127.2C46.2608 127.2 44.6074 126.813 43.1408 126.04C41.7008 125.24 40.5541 124.08 39.7008 122.56C38.8741 121.04 38.4608 119.173 38.4608 116.96V107.12C38.4608 106.533 38.6474 106.053 39.0208 105.68C39.4208 105.28 39.9141 105.08 40.5008 105.08C41.0874 105.08 41.5674 105.28 41.9408 105.68C42.3408 106.053 42.5408 106.533 42.5408 107.12V116.96C42.5408 118.453 42.8208 119.693 43.3808 120.68C43.9408 121.64 44.7008 122.36 45.6608 122.84C46.6208 123.293 47.7008 123.52 48.9008 123.52C50.0474 123.52 51.0608 123.293 51.9408 122.84C52.8474 122.387 53.5674 121.773 54.1008 121C54.6341 120.227 54.9008 119.36 54.9008 118.4H57.4208C57.4208 120.053 57.0074 121.547 56.1808 122.88C55.3808 124.213 54.2741 125.267 52.8608 126.04C51.4741 126.813 49.8874 127.2 48.1008 127.2ZM56.9408 127C56.3541 127 55.8608 126.813 55.4608 126.44C55.0874 126.04 54.9008 125.547 54.9008 124.96V107.12C54.9008 106.507 55.0874 106.013 55.4608 105.64C55.8608 105.267 56.3541 105.08 56.9408 105.08C57.5541 105.08 58.0474 105.267 58.4208 105.64C58.7941 106.013 58.9808 106.507 58.9808 107.12V124.96C58.9808 125.547 58.7941 126.04 58.4208 126.44C58.0474 126.813 57.5541 127 56.9408 127ZM70.1264 113.32C70.1264 111.72 70.5131 110.293 71.2864 109.04C72.0864 107.76 73.1531 106.747 74.4864 106C75.8197 105.253 77.2864 104.88 78.8864 104.88C80.4864 104.88 81.6731 105.147 82.4464 105.68C83.2464 106.187 83.5531 106.8 83.3664 107.52C83.2864 107.893 83.1264 108.187 82.8864 108.4C82.6731 108.587 82.4197 108.707 82.1264 108.76C81.8331 108.813 81.5131 108.8 81.1664 108.72C79.4597 108.373 77.9264 108.347 76.5664 108.64C75.2064 108.933 74.1264 109.48 73.3264 110.28C72.5531 111.08 72.1664 112.093 72.1664 113.32H70.1264ZM70.1664 127C69.5264 127 69.0331 126.84 68.6864 126.52C68.3397 126.173 68.1664 125.667 68.1664 125V107.12C68.1664 106.48 68.3397 105.987 68.6864 105.64C69.0331 105.293 69.5264 105.12 70.1664 105.12C70.8331 105.12 71.3264 105.293 71.6464 105.64C71.9931 105.96 72.1664 106.453 72.1664 107.12V125C72.1664 125.64 71.9931 126.133 71.6464 126.48C71.3264 126.827 70.8331 127 70.1664 127ZM92.0595 127C91.4729 127 90.9795 126.813 90.5795 126.44C90.2062 126.04 90.0195 125.547 90.0195 124.96V107.16C90.0195 106.547 90.2062 106.053 90.5795 105.68C90.9795 105.307 91.4729 105.12 92.0595 105.12C92.6729 105.12 93.1662 105.307 93.5395 105.68C93.9129 106.053 94.0995 106.547 94.0995 107.16V124.96C94.0995 125.547 93.9129 126.04 93.5395 126.44C93.1662 126.813 92.6729 127 92.0595 127ZM92.0595 101.56C91.3395 101.56 90.7129 101.307 90.1795 100.8C89.6729 100.267 89.4195 99.64 89.4195 98.92C89.4195 98.2 89.6729 97.5867 90.1795 97.08C90.7129 96.5467 91.3395 96.28 92.0595 96.28C92.7795 96.28 93.3929 96.5467 93.8995 97.08C94.4329 97.5867 94.6995 98.2 94.6995 98.92C94.6995 99.64 94.4329 100.267 93.8995 100.8C93.3929 101.307 92.7795 101.56 92.0595 101.56ZM113.61 127.16C111.45 127.16 109.543 126.693 107.89 125.76C106.237 124.8 104.93 123.493 103.97 121.84C103.037 120.16 102.57 118.24 102.57 116.08C102.57 113.893 103.037 111.973 103.97 110.32C104.93 108.64 106.237 107.333 107.89 106.4C109.543 105.44 111.45 104.96 113.61 104.96C115.743 104.96 117.637 105.44 119.29 106.4C120.943 107.333 122.237 108.64 123.17 110.32C124.13 111.973 124.61 113.893 124.61 116.08C124.61 118.24 124.143 120.16 123.21 121.84C122.277 123.493 120.983 124.8 119.33 125.76C117.677 126.693 115.77 127.16 113.61 127.16ZM113.61 123.56C114.997 123.56 116.223 123.24 117.29 122.6C118.357 121.96 119.183 121.08 119.77 119.96C120.383 118.84 120.69 117.547 120.69 116.08C120.69 114.613 120.383 113.32 119.77 112.2C119.183 111.053 118.357 110.16 117.29 109.52C116.223 108.88 114.997 108.56 113.61 108.56C112.223 108.56 110.997 108.88 109.93 109.52C108.863 110.16 108.023 111.053 107.41 112.2C106.797 113.32 106.49 114.613 106.49 116.08C106.49 117.547 106.797 118.84 107.41 119.96C108.023 121.08 108.863 121.96 109.93 122.6C110.997 123.24 112.223 123.56 113.61 123.56ZM140.642 127.16C138.775 127.16 137.042 126.88 135.442 126.32C133.869 125.733 132.642 125 131.762 124.12C131.362 123.693 131.189 123.213 131.242 122.68C131.322 122.12 131.589 121.667 132.042 121.32C132.575 120.893 133.095 120.72 133.602 120.8C134.135 120.853 134.589 121.08 134.962 121.48C135.415 121.987 136.135 122.467 137.122 122.92C138.135 123.347 139.255 123.56 140.482 123.56C142.029 123.56 143.202 123.307 144.002 122.8C144.829 122.293 145.255 121.64 145.282 120.84C145.309 120.04 144.922 119.347 144.122 118.76C143.349 118.173 141.922 117.693 139.842 117.32C137.149 116.787 135.189 115.987 133.962 114.92C132.762 113.853 132.162 112.547 132.162 111C132.162 109.64 132.562 108.52 133.362 107.64C134.162 106.733 135.189 106.067 136.442 105.64C137.695 105.187 139.002 104.96 140.362 104.96C142.122 104.96 143.682 105.24 145.042 105.8C146.402 106.36 147.482 107.133 148.282 108.12C148.655 108.547 148.829 109 148.802 109.48C148.775 109.933 148.549 110.32 148.122 110.64C147.695 110.933 147.189 111.027 146.602 110.92C146.015 110.813 145.522 110.573 145.122 110.2C144.455 109.56 143.735 109.12 142.962 108.88C142.189 108.64 141.295 108.52 140.282 108.52C139.109 108.52 138.109 108.72 137.282 109.12C136.482 109.52 136.082 110.107 136.082 110.88C136.082 111.36 136.202 111.8 136.442 112.2C136.709 112.573 137.215 112.92 137.962 113.24C138.709 113.533 139.802 113.827 141.242 114.12C143.242 114.52 144.815 115.027 145.962 115.64C147.135 116.253 147.975 116.973 148.482 117.8C148.989 118.6 149.242 119.533 149.242 120.6C149.242 121.827 148.909 122.933 148.242 123.92C147.602 124.907 146.642 125.693 145.362 126.28C144.109 126.867 142.535 127.16 140.642 127.16ZM165.521 127.16C163.574 127.16 161.827 126.68 160.281 125.72C158.734 124.733 157.507 123.413 156.601 121.76C155.721 120.08 155.281 118.187 155.281 116.08C155.281 113.973 155.761 112.08 156.721 110.4C157.707 108.72 159.027 107.4 160.681 106.44C162.361 105.453 164.241 104.96 166.321 104.96C168.401 104.96 170.267 105.453 171.921 106.44C173.574 107.4 174.881 108.72 175.841 110.4C176.827 112.08 177.321 113.973 177.321 116.08H175.761C175.761 118.187 175.307 120.08 174.401 121.76C173.521 123.413 172.307 124.733 170.761 125.72C169.214 126.68 167.467 127.16 165.521 127.16ZM166.321 123.56C167.681 123.56 168.894 123.24 169.961 122.6C171.027 121.933 171.867 121.04 172.481 119.92C173.094 118.773 173.401 117.493 173.401 116.08C173.401 114.64 173.094 113.36 172.481 112.24C171.867 111.093 171.027 110.2 169.961 109.56C168.894 108.893 167.681 108.56 166.321 108.56C164.987 108.56 163.774 108.893 162.681 109.56C161.614 110.2 160.761 111.093 160.121 112.24C159.507 113.36 159.201 114.64 159.201 116.08C159.201 117.493 159.507 118.773 160.121 119.92C160.761 121.04 161.614 121.933 162.681 122.6C163.774 123.24 164.987 123.56 166.321 123.56ZM175.281 127.04C174.694 127.04 174.201 126.853 173.801 126.48C173.427 126.08 173.241 125.587 173.241 125V118.88L174.001 114.64L177.321 116.08V125C177.321 125.587 177.121 126.08 176.721 126.48C176.347 126.853 175.867 127.04 175.281 127.04Z" fill="white"/>
</g>
<g filter="url(#filter1_d_108_2)">
<path d="M101.025 37.7647C99.0652 14.3642 103.433 2.2418 76.2232 3.3887C63.0937 3.3887 55.2667 7.96159 55.8687 25.121C56.9837 37.943 56.1563 54.1748 53.8595 61.4514C51.5626 68.728 52.279 72.3042 36 73.5887" stroke="#FAFAFA" stroke-width="6" stroke-linecap="round"/>
</g>
<g filter="url(#filter2_d_108_2)">
<path d="M80.4708 39.7773C82.5165 63.1705 78.193 75.3088 105.399 74.062C118.528 74.0138 126.338 69.4122 125.673 52.2551C124.511 39.4372 125.279 23.2026 127.549 15.9176C129.819 8.63254 129.09 5.05907 145.364 3.71481" stroke="#FAFAFA" stroke-width="6" stroke-linecap="round"/>
</g>
<defs>
<filter id="filter0_d_108_2" x="0.767029" y="95.36" width="180.554" height="40.04" filterUnits="userSpaceOnUse" color-interpolation-filters="sRGB">
<feFlood flood-opacity="0" result="BackgroundImageFix"/>
<feColorMatrix in="SourceAlpha" type="matrix" values="0 0 0 0 0 0 0 0 0 0 0 0 0 0 0 0 0 0 127 0" result="hardAlpha"/>
<feOffset dy="4"/>
<feGaussianBlur stdDeviation="2"/>
<feComposite in2="hardAlpha" operator="out"/>
<feColorMatrix type="matrix" values="0 0 0 0 0 0 0 0 0 0 0 0 0 0 0 0 0 0 0.25 0"/>
<feBlend mode="normal" in2="BackgroundImageFix" result="effect1_dropShadow_108_2"/>
<feBlend mode="normal" in="SourceGraphic" in2="effect1_dropShadow_108_2" result="shape"/>
</filter>
<filter id="filter1_d_108_2" x="28.9999" y="0.314026" width="79.0253" height="84.2748" filterUnits="userSpaceOnUse" color-interpolation-filters="sRGB">
<feFlood flood-opacity="0" result="BackgroundImageFix"/>
<feColorMatrix in="SourceAlpha" type="matrix" values="0 0 0 0 0 0 0 0 0 0 0 0 0 0 0 0 0 0 127 0" result="hardAlpha"/>
<feOffset dy="4"/>
<feGaussianBlur stdDeviation="2"/>
<feComposite in2="hardAlpha" operator="out"/>
<feColorMatrix type="matrix" values="0 0 0 0 0 0 0 0 0 0 0 0 0 0 0 0 0 0 0.25 0"/>
<feBlend mode="normal" in2="BackgroundImageFix" result="effect1_dropShadow_108_2"/>
<feBlend mode="normal" in="SourceGraphic" in2="effect1_dropShadow_108_2" result="shape"/>
</filter>
<filter id="filter2_d_108_2" x="73.4706" y="0.714645" width="78.8934" height="84.4349" filterUnits="userSpaceOnUse" color-interpolation-filters="sRGB">
<feFlood flood-opacity="0" result="BackgroundImageFix"/>
<feColorMatrix in="SourceAlpha" type="matrix" values="0 0 0 0 0 0 0 0 0 0 0 0 0 0 0 0 0 0 127 0" result="hardAlpha"/>
<feOffset dy="4"/>
<feGaussianBlur stdDeviation="2"/>
<feComposite in2="hardAlpha" operator="out"/>
<feColorMatrix type="matrix" values="0 0 0 0 0 0 0 0 0 0 0 0 0 0 0 0 0 0 0.25 0"/>
<feBlend mode="normal" in2="BackgroundImageFix" result="effect1_dropShadow_108_2"/>
<feBlend mode="normal" in="SourceGraphic" in2="effect1_dropShadow_108_2" result="shape"/>
</filter>
</defs>
</svg>
