<svg width="267" height="251" viewBox="0 0 267 251" fill="none" xmlns="http://www.w3.org/2000/svg">
<g filter="url(#filter0_d_118_2)">
<path d="M157.059 85.4283C152.603 31.2798 162.552 3.22748 100.599 5.88874C70.7062 5.89229 52.8842 16.4761 54.2504 56.1828C56.7855 85.8528 54.8973 123.413 49.6659 140.252C44.4344 157.091 46.0645 165.366 9 168.343" stroke="#FAFAFA" stroke-width="10" stroke-linecap="round"/>
</g>
<g filter="url(#filter1_d_118_2)">
<path d="M110.251 90.1028C114.909 144.235 105.065 172.323 167.007 169.438C196.9 169.326 214.683 158.678 213.168 118.977C210.523 89.3159 212.271 51.7488 217.439 34.8912C222.608 18.0336 220.947 9.76456 258 6.65393" stroke="#FAFAFA" stroke-width="10" stroke-linecap="round"/>
</g>
<g filter="url(#filter2_d_118_2)">
<path d="M55.6674 241.42C53.3994 241.42 51.2714 241 49.2834 240.16C47.3234 239.292 45.6014 238.102 44.1174 236.59C42.6614 235.05 41.5134 233.258 40.6734 231.214C39.8614 229.17 39.4554 226.958 39.4554 224.578C39.4554 222.226 39.8614 220.042 40.6734 218.026C41.5134 215.982 42.6614 214.204 44.1174 212.692C45.6014 211.152 47.3234 209.948 49.2834 209.08C51.2434 208.212 53.3714 207.778 55.6674 207.778C57.8234 207.778 59.6714 208.058 61.2114 208.618C62.7794 209.178 64.3474 210.102 65.9154 211.39C66.1394 211.558 66.3074 211.74 66.4194 211.936C66.5594 212.104 66.6434 212.286 66.6714 212.482C66.7274 212.65 66.7554 212.86 66.7554 213.112C66.7554 213.644 66.5594 214.092 66.1674 214.456C65.8034 214.792 65.3554 214.988 64.8234 215.044C64.2914 215.072 63.7734 214.89 63.2694 214.498C62.2334 213.602 61.1554 212.916 60.0354 212.44C58.9434 211.964 57.4874 211.726 55.6674 211.726C54.0154 211.726 52.4614 212.062 51.0054 212.734C49.5494 213.406 48.2614 214.33 47.1414 215.506C46.0494 216.682 45.1954 218.054 44.5794 219.622C43.9634 221.162 43.6554 222.814 43.6554 224.578C43.6554 226.37 43.9634 228.05 44.5794 229.618C45.1954 231.158 46.0494 232.516 47.1414 233.692C48.2614 234.868 49.5494 235.792 51.0054 236.464C52.4614 237.108 54.0154 237.43 55.6674 237.43C57.0954 237.43 58.4394 237.192 59.6994 236.716C60.9874 236.212 62.2194 235.526 63.3954 234.658C63.8994 234.294 64.3894 234.14 64.8654 234.196C65.3694 234.224 65.7894 234.42 66.1254 234.784C66.4614 235.12 66.6294 235.596 66.6294 236.212C66.6294 236.492 66.5734 236.772 66.4614 237.052C66.3494 237.304 66.1814 237.542 65.9574 237.766C64.4454 238.97 62.8214 239.88 61.0854 240.496C59.3774 241.112 57.5714 241.42 55.6674 241.42ZM84.9558 241.21C83.0238 241.21 81.2878 240.804 79.7478 239.992C78.2358 239.152 77.0318 237.934 76.1358 236.338C75.2678 234.742 74.8338 232.782 74.8338 230.458V220.126C74.8338 219.51 75.0298 219.006 75.4218 218.614C75.8418 218.194 76.3598 217.984 76.9758 217.984C77.5918 217.984 78.0958 218.194 78.4878 218.614C78.9078 219.006 79.1178 219.51 79.1178 220.126V230.458C79.1178 232.026 79.4118 233.328 79.9998 234.364C80.5878 235.372 81.3858 236.128 82.3938 236.632C83.4018 237.108 84.5358 237.346 85.7958 237.346C86.9998 237.346 88.0638 237.108 88.9878 236.632C89.9398 236.156 90.6958 235.512 91.2558 234.7C91.8158 233.888 92.0958 232.978 92.0958 231.97H94.7418C94.7418 233.706 94.3078 235.274 93.4398 236.674C92.5998 238.074 91.4378 239.18 89.9538 239.992C88.4978 240.804 86.8318 241.21 84.9558 241.21ZM94.2378 241C93.6218 241 93.1038 240.804 92.6838 240.412C92.2918 239.992 92.0958 239.474 92.0958 238.858V220.126C92.0958 219.482 92.2918 218.964 92.6838 218.572C93.1038 218.18 93.6218 217.984 94.2378 217.984C94.8818 217.984 95.3998 218.18 95.7918 218.572C96.1838 218.964 96.3798 219.482 96.3798 220.126V238.858C96.3798 239.474 96.1838 239.992 95.7918 240.412C95.3998 240.804 94.8818 241 94.2378 241ZM108.083 226.636C108.083 224.956 108.489 223.458 109.301 222.142C110.141 220.798 111.261 219.734 112.661 218.95C114.061 218.166 115.601 217.774 117.281 217.774C118.961 217.774 120.207 218.054 121.019 218.614C121.859 219.146 122.181 219.79 121.985 220.546C121.901 220.938 121.733 221.246 121.481 221.47C121.257 221.666 120.991 221.792 120.683 221.848C120.375 221.904 120.039 221.89 119.675 221.806C117.883 221.442 116.273 221.414 114.845 221.722C113.417 222.03 112.283 222.604 111.443 223.444C110.631 224.284 110.225 225.348 110.225 226.636H108.083ZM108.125 241C107.453 241 106.935 240.832 106.571 240.496C106.207 240.132 106.025 239.6 106.025 238.9V220.126C106.025 219.454 106.207 218.936 106.571 218.572C106.935 218.208 107.453 218.026 108.125 218.026C108.825 218.026 109.343 218.208 109.679 218.572C110.043 218.908 110.225 219.426 110.225 220.126V238.9C110.225 239.572 110.043 240.09 109.679 240.454C109.343 240.818 108.825 241 108.125 241ZM131.113 241C130.497 241 129.979 240.804 129.559 240.412C129.167 239.992 128.971 239.474 128.971 238.858V220.168C128.971 219.524 129.167 219.006 129.559 218.614C129.979 218.222 130.497 218.026 131.113 218.026C131.757 218.026 132.275 218.222 132.667 218.614C133.059 219.006 133.255 219.524 133.255 220.168V238.858C133.255 239.474 133.059 239.992 132.667 240.412C132.275 240.804 131.757 241 131.113 241ZM131.113 214.288C130.357 214.288 129.699 214.022 129.139 213.49C128.607 212.93 128.341 212.272 128.341 211.516C128.341 210.76 128.607 210.116 129.139 209.584C129.699 209.024 130.357 208.744 131.113 208.744C131.869 208.744 132.513 209.024 133.045 209.584C133.605 210.116 133.885 210.76 133.885 211.516C133.885 212.272 133.605 212.93 133.045 213.49C132.513 214.022 131.869 214.288 131.113 214.288ZM153.74 241.168C151.472 241.168 149.47 240.678 147.734 239.698C145.998 238.69 144.626 237.318 143.618 235.582C142.638 233.818 142.148 231.802 142.148 229.534C142.148 227.238 142.638 225.222 143.618 223.486C144.626 221.722 145.998 220.35 147.734 219.37C149.47 218.362 151.472 217.858 153.74 217.858C155.98 217.858 157.968 218.362 159.704 219.37C161.44 220.35 162.798 221.722 163.778 223.486C164.786 225.222 165.29 227.238 165.29 229.534C165.29 231.802 164.8 233.818 163.82 235.582C162.84 237.318 161.482 238.69 159.746 239.698C158.01 240.678 156.008 241.168 153.74 241.168ZM153.74 237.388C155.196 237.388 156.484 237.052 157.604 236.38C158.724 235.708 159.592 234.784 160.208 233.608C160.852 232.432 161.174 231.074 161.174 229.534C161.174 227.994 160.852 226.636 160.208 225.46C159.592 224.256 158.724 223.318 157.604 222.646C156.484 221.974 155.196 221.638 153.74 221.638C152.284 221.638 150.996 221.974 149.876 222.646C148.756 223.318 147.874 224.256 147.23 225.46C146.586 226.636 146.264 227.994 146.264 229.534C146.264 231.074 146.586 232.432 147.23 233.608C147.874 234.784 148.756 235.708 149.876 236.38C150.996 237.052 152.284 237.388 153.74 237.388ZM182.124 241.168C180.164 241.168 178.344 240.874 176.664 240.286C175.012 239.67 173.724 238.9 172.8 237.976C172.38 237.528 172.198 237.024 172.254 236.464C172.338 235.876 172.618 235.4 173.094 235.036C173.654 234.588 174.2 234.406 174.732 234.49C175.292 234.546 175.768 234.784 176.16 235.204C176.636 235.736 177.392 236.24 178.428 236.716C179.492 237.164 180.668 237.388 181.956 237.388C183.58 237.388 184.812 237.122 185.652 236.59C186.52 236.058 186.968 235.372 186.996 234.532C187.024 233.692 186.618 232.964 185.778 232.348C184.966 231.732 183.468 231.228 181.284 230.836C178.456 230.276 176.398 229.436 175.11 228.316C173.85 227.196 173.22 225.824 173.22 224.2C173.22 222.772 173.64 221.596 174.48 220.672C175.32 219.72 176.398 219.02 177.714 218.572C179.03 218.096 180.402 217.858 181.83 217.858C183.678 217.858 185.316 218.152 186.744 218.74C188.172 219.328 189.306 220.14 190.146 221.176C190.538 221.624 190.72 222.1 190.692 222.604C190.664 223.08 190.426 223.486 189.978 223.822C189.53 224.13 188.998 224.228 188.382 224.116C187.766 224.004 187.248 223.752 186.828 223.36C186.128 222.688 185.372 222.226 184.56 221.974C183.748 221.722 182.81 221.596 181.746 221.596C180.514 221.596 179.464 221.806 178.596 222.226C177.756 222.646 177.336 223.262 177.336 224.074C177.336 224.578 177.462 225.04 177.714 225.46C177.994 225.852 178.526 226.216 179.31 226.552C180.094 226.86 181.242 227.168 182.754 227.476C184.854 227.896 186.506 228.428 187.71 229.072C188.942 229.716 189.824 230.472 190.356 231.34C190.888 232.18 191.154 233.16 191.154 234.28C191.154 235.568 190.804 236.73 190.104 237.766C189.432 238.802 188.424 239.628 187.08 240.244C185.764 240.86 184.112 241.168 182.124 241.168ZM208.247 241.168C206.203 241.168 204.369 240.664 202.745 239.656C201.121 238.62 199.833 237.234 198.881 235.498C197.957 233.734 197.495 231.746 197.495 229.534C197.495 227.322 197.999 225.334 199.007 223.57C200.043 221.806 201.429 220.42 203.165 219.412C204.929 218.376 206.903 217.858 209.087 217.858C211.271 217.858 213.231 218.376 214.967 219.412C216.703 220.42 218.075 221.806 219.083 223.57C220.119 225.334 220.637 227.322 220.637 229.534H218.999C218.999 231.746 218.523 233.734 217.571 235.498C216.647 237.234 215.373 238.62 213.749 239.656C212.125 240.664 210.291 241.168 208.247 241.168ZM209.087 237.388C210.515 237.388 211.789 237.052 212.909 236.38C214.029 235.68 214.911 234.742 215.555 233.566C216.199 232.362 216.521 231.018 216.521 229.534C216.521 228.022 216.199 226.678 215.555 225.502C214.911 224.298 214.029 223.36 212.909 222.688C211.789 221.988 210.515 221.638 209.087 221.638C207.687 221.638 206.413 221.988 205.265 222.688C204.145 223.36 203.249 224.298 202.577 225.502C201.933 226.678 201.611 228.022 201.611 229.534C201.611 231.018 201.933 232.362 202.577 233.566C203.249 234.742 204.145 235.68 205.265 236.38C206.413 237.052 207.687 237.388 209.087 237.388ZM218.495 241.042C217.879 241.042 217.361 240.846 216.941 240.454C216.549 240.034 216.353 239.516 216.353 238.9V232.474L217.151 228.022L220.637 229.534V238.9C220.637 239.516 220.427 240.034 220.007 240.454C219.615 240.846 219.111 241.042 218.495 241.042Z" fill="white"/>
</g>
<defs>
<filter id="filter0_d_118_2" x="-0.000244141" y="0.715149" width="166.06" height="180.628" filterUnits="userSpaceOnUse" color-interpolation-filters="sRGB">
<feFlood flood-opacity="0" result="BackgroundImageFix"/>
<feColorMatrix in="SourceAlpha" type="matrix" values="0 0 0 0 0 0 0 0 0 0 0 0 0 0 0 0 0 0 127 0" result="hardAlpha"/>
<feOffset dy="4"/>
<feGaussianBlur stdDeviation="2"/>
<feComposite in2="hardAlpha" operator="out"/>
<feColorMatrix type="matrix" values="0 0 0 0 0 0 0 0 0 0 0 0 0 0 0 0 0 0 0.25 0"/>
<feBlend mode="normal" in2="BackgroundImageFix" result="effect1_dropShadow_118_2"/>
<feBlend mode="normal" in="SourceGraphic" in2="effect1_dropShadow_118_2" result="shape"/>
</filter>
<filter id="filter1_d_118_2" x="101.251" y="1.65365" width="165.749" height="180.987" filterUnits="userSpaceOnUse" color-interpolation-filters="sRGB">
<feFlood flood-opacity="0" result="BackgroundImageFix"/>
<feColorMatrix in="SourceAlpha" type="matrix" values="0 0 0 0 0 0 0 0 0 0 0 0 0 0 0 0 0 0 127 0" result="hardAlpha"/>
<feOffset dy="4"/>
<feGaussianBlur stdDeviation="2"/>
<feComposite in2="hardAlpha" operator="out"/>
<feColorMatrix type="matrix" values="0 0 0 0 0 0 0 0 0 0 0 0 0 0 0 0 0 0 0.25 0"/>
<feBlend mode="normal" in2="BackgroundImageFix" result="effect1_dropShadow_118_2"/>
<feBlend mode="normal" in="SourceGraphic" in2="effect1_dropShadow_118_2" result="shape"/>
</filter>
<filter id="filter2_d_118_2" x="35.4554" y="207.778" width="189.181" height="41.642" filterUnits="userSpaceOnUse" color-interpolation-filters="sRGB">
<feFlood flood-opacity="0" result="BackgroundImageFix"/>
<feColorMatrix in="SourceAlpha" type="matrix" values="0 0 0 0 0 0 0 0 0 0 0 0 0 0 0 0 0 0 127 0" result="hardAlpha"/>
<feOffset dy="4"/>
<feGaussianBlur stdDeviation="2"/>
<feComposite in2="hardAlpha" operator="out"/>
<feColorMatrix type="matrix" values="0 0 0 0 0 0 0 0 0 0 0 0 0 0 0 0 0 0 0.25 0"/>
<feBlend mode="normal" in2="BackgroundImageFix" result="effect1_dropShadow_118_2"/>
<feBlend mode="normal" in="SourceGraphic" in2="effect1_dropShadow_118_2" result="shape"/>
</filter>
</defs>
</svg>
