<svg width="592" height="355" viewBox="0 0 592 355" fill="none" xmlns="http://www.w3.org/2000/svg">
<ellipse cx="296" cy="177.5" rx="296" ry="177.5" fill="#0F172A"/>
<ellipse cx="296" cy="177.5" rx="296" ry="177.5" fill="url(#paint0_radial_127_78)" fill-opacity="0.2"/>
<g clip-path="url(#clip0_127_78)">
<path d="M232.703 66.8094C232.365 67.2449 231.898 67.5625 231.369 67.7167C230.84 67.8709 230.276 67.8539 229.757 67.6681C229.6 67.6214 229.445 67.5649 229.294 67.499C229.464 65.6776 229.38 63.8414 229.043 62.0433C228.911 63.5889 228.533 65.1034 227.924 66.5299C227.427 66.0317 227.02 65.4512 226.722 64.814C226.166 63.4956 225.798 62.1058 225.628 60.6852C224.805 55.8449 223.994 50.8094 225.336 46.0792C227.301 39.1692 233.5 34.2017 236.088 27.4974L237.364 26.3522C239.547 30.0708 239.644 34.6915 238.754 38.908C237.869 43.133 236.085 47.0982 234.674 51.1726C233.264 55.247 232.207 59.5809 232.862 63.8443C233.012 64.8481 233.242 65.9514 232.703 66.8094Z" fill="#2F2E41"/>
<path d="M204.356 125.278L196.044 163.301L232.35 175.128L227.011 125.278H204.356Z" fill="#FFB6B6"/>
<path d="M460.55 325L474 320L477.002 251.631C476.98 232.163 469.238 213.498 455.474 199.732C441.71 185.966 423.049 178.223 403.584 178.2H250.686C231.221 178.223 212.56 185.966 198.796 199.732C185.032 213.498 177.29 232.163 177.268 251.631V327.067H193.72V275.531C193.742 255.882 201.556 237.044 215.448 223.15C229.34 209.256 248.175 201.44 267.821 201.418H386.449C406.095 201.44 424.93 209.256 438.822 223.15C452.714 237.044 460.528 255.882 460.55 275.531V325Z" fill="#E6E6E6"/>
<path d="M378.72 122.568H343.896C343.403 122.569 342.931 122.765 342.583 123.114C342.235 123.463 342.04 123.936 342.04 124.429V179.45H380.58V124.429C380.581 124.184 380.533 123.942 380.439 123.717C380.346 123.491 380.209 123.286 380.036 123.113C379.863 122.94 379.658 122.803 379.432 122.71C379.207 122.616 378.965 122.568 378.72 122.568V122.568ZM361.425 153.831C360.336 153.826 359.293 153.391 358.523 152.621C357.753 151.85 357.318 150.807 357.313 149.718V143.372C357.314 142.282 357.748 141.237 358.519 140.467C359.29 139.697 360.335 139.264 361.425 139.264C362.515 139.264 363.56 139.697 364.331 140.467C365.102 141.237 365.536 142.282 365.537 143.372V149.718C365.532 150.807 365.097 151.85 364.327 152.621C363.557 153.391 362.514 153.826 361.425 153.831V153.831Z" fill="#3F3D56"/>
<path d="M436.387 36.7007H287.525C286.246 36.7028 285.02 37.2118 284.115 38.1163C283.211 39.0208 282.702 40.247 282.7 41.5262V141.995C282.701 143.275 283.21 144.501 284.114 145.406C285.019 146.311 286.245 146.819 287.525 146.821H436.387C437.666 146.819 438.893 146.311 439.797 145.406C440.702 144.501 441.211 143.275 441.212 141.995V41.5262C441.21 40.247 440.701 39.0208 439.797 38.1163C438.892 37.2118 437.666 36.7028 436.387 36.7007V36.7007Z" fill="#3F3D56"/>
<path d="M435.145 40.1861H288.768C288.084 40.1876 287.427 40.4607 286.944 40.9455C286.46 41.4303 286.188 42.0872 286.188 42.7721V140.751C286.189 141.435 286.462 142.091 286.945 142.574C287.429 143.058 288.084 143.33 288.768 143.332H435.145C435.829 143.33 436.484 143.058 436.968 142.574C437.452 142.091 437.724 141.435 437.725 140.751V42.7721C437.725 42.0872 437.453 41.4303 436.969 40.9455C436.486 40.4607 435.829 40.1876 435.145 40.1861V40.1861Z" fill="white"/>
<path d="M341.921 177.69V182.999C341.921 183.274 342.031 183.538 342.225 183.732C342.42 183.927 342.683 184.036 342.958 184.037H379.662C379.937 184.035 380.2 183.926 380.395 183.731C380.589 183.537 380.699 183.274 380.7 182.999V177.69H341.921Z" fill="#3F3D56"/>
<path d="M406.633 185.884H319.547C319.309 185.884 319.073 185.831 318.858 185.728C318.643 185.626 318.453 185.476 318.303 185.291C318.153 185.106 318.046 184.89 317.99 184.658C317.934 184.426 317.93 184.185 317.979 183.952L319.331 177.533C319.408 177.174 319.605 176.852 319.89 176.62C320.175 176.389 320.531 176.262 320.898 176.261H405.282C405.649 176.262 406.005 176.389 406.29 176.62C406.575 176.852 406.772 177.174 406.849 177.533L408.201 183.952C408.25 184.185 408.246 184.426 408.19 184.658C408.134 184.89 408.027 185.106 407.877 185.291C407.727 185.476 407.537 185.626 407.322 185.728C407.107 185.831 406.871 185.884 406.633 185.884V185.884Z" fill="#3F3D56"/>
<path d="M323.865 177.417H321.85C321.666 177.417 321.517 177.566 321.517 177.75V178.693C321.517 178.877 321.666 179.026 321.85 179.026H323.865C324.05 179.026 324.199 178.877 324.199 178.693V177.75C324.199 177.566 324.05 177.417 323.865 177.417Z" fill="#E6E6E6"/>
<path d="M329.23 177.417H327.214C327.03 177.417 326.881 177.566 326.881 177.75V178.693C326.881 178.877 327.03 179.026 327.214 179.026H329.23C329.414 179.026 329.563 178.877 329.563 178.693V177.75C329.563 177.566 329.414 177.417 329.23 177.417Z" fill="#E6E6E6"/>
<path d="M334.594 177.417H332.579C332.394 177.417 332.245 177.566 332.245 177.75V178.693C332.245 178.877 332.394 179.026 332.579 179.026H334.594C334.778 179.026 334.927 178.877 334.927 178.693V177.75C334.927 177.566 334.778 177.417 334.594 177.417Z" fill="#E6E6E6"/>
<path d="M339.958 177.417H337.943C337.759 177.417 337.609 177.566 337.609 177.75V178.693C337.609 178.877 337.759 179.026 337.943 179.026H339.958C340.142 179.026 340.292 178.877 340.292 178.693V177.75C340.292 177.566 340.142 177.417 339.958 177.417Z" fill="#E6E6E6"/>
<path d="M345.323 177.417H343.307C343.123 177.417 342.974 177.566 342.974 177.75V178.693C342.974 178.877 343.123 179.026 343.307 179.026H345.323C345.507 179.026 345.656 178.877 345.656 178.693V177.75C345.656 177.566 345.507 177.417 345.323 177.417Z" fill="#E6E6E6"/>
<path d="M350.687 177.417H348.671C348.487 177.417 348.338 177.566 348.338 177.75V178.693C348.338 178.877 348.487 179.026 348.671 179.026H350.687C350.871 179.026 351.02 178.877 351.02 178.693V177.75C351.02 177.566 350.871 177.417 350.687 177.417Z" fill="#E6E6E6"/>
<path d="M356.051 177.417H354.036C353.852 177.417 353.703 177.566 353.703 177.75V178.693C353.703 178.877 353.852 179.026 354.036 179.026H356.051C356.235 179.026 356.385 178.877 356.385 178.693V177.75C356.385 177.566 356.235 177.417 356.051 177.417Z" fill="#E6E6E6"/>
<path d="M361.416 177.417H359.4C359.216 177.417 359.067 177.566 359.067 177.75V178.693C359.067 178.877 359.216 179.026 359.4 179.026H361.416C361.6 179.026 361.749 178.877 361.749 178.693V177.75C361.749 177.566 361.6 177.417 361.416 177.417Z" fill="#E6E6E6"/>
<path d="M366.78 177.417H364.764C364.58 177.417 364.431 177.566 364.431 177.75V178.693C364.431 178.877 364.58 179.026 364.764 179.026H366.78C366.964 179.026 367.113 178.877 367.113 178.693V177.75C367.113 177.566 366.964 177.417 366.78 177.417Z" fill="#E6E6E6"/>
<path d="M372.144 177.417H370.129C369.945 177.417 369.795 177.566 369.795 177.75V178.693C369.795 178.877 369.945 179.026 370.129 179.026H372.144C372.328 179.026 372.478 178.877 372.478 178.693V177.75C372.478 177.566 372.328 177.417 372.144 177.417Z" fill="#E6E6E6"/>
<path d="M377.509 177.417H375.493C375.309 177.417 375.16 177.566 375.16 177.75V178.693C375.16 178.877 375.309 179.026 375.493 179.026H377.509C377.693 179.026 377.842 178.877 377.842 178.693V177.75C377.842 177.566 377.693 177.417 377.509 177.417Z" fill="#E6E6E6"/>
<path d="M382.873 177.417H380.857C380.673 177.417 380.524 177.566 380.524 177.75V178.693C380.524 178.877 380.673 179.026 380.857 179.026H382.873C383.057 179.026 383.206 178.877 383.206 178.693V177.75C383.206 177.566 383.057 177.417 382.873 177.417Z" fill="#E6E6E6"/>
<path d="M388.237 177.417H386.222C386.038 177.417 385.888 177.566 385.888 177.75V178.693C385.888 178.877 386.038 179.026 386.222 179.026H388.237C388.421 179.026 388.571 178.877 388.571 178.693V177.75C388.571 177.566 388.421 177.417 388.237 177.417Z" fill="#E6E6E6"/>
<path d="M393.602 177.417H391.586C391.402 177.417 391.253 177.566 391.253 177.75V178.693C391.253 178.877 391.402 179.026 391.586 179.026H393.602C393.786 179.026 393.935 178.877 393.935 178.693V177.75C393.935 177.566 393.786 177.417 393.602 177.417Z" fill="#E6E6E6"/>
<path d="M398.966 177.417H396.95C396.766 177.417 396.617 177.566 396.617 177.75V178.693C396.617 178.877 396.766 179.026 396.95 179.026H398.966C399.15 179.026 399.299 178.877 399.299 178.693V177.75C399.299 177.566 399.15 177.417 398.966 177.417Z" fill="#E6E6E6"/>
<path d="M404.33 177.417H402.315C402.131 177.417 401.981 177.566 401.981 177.75V178.693C401.981 178.877 402.131 179.026 402.315 179.026H404.33C404.514 179.026 404.664 178.877 404.664 178.693V177.75C404.664 177.566 404.514 177.417 404.33 177.417Z" fill="#E6E6E6"/>
<path d="M323.802 180.099H321.786C321.602 180.099 321.453 180.248 321.453 180.432V181.375C321.453 181.559 321.602 181.709 321.786 181.709H323.802C323.986 181.709 324.135 181.559 324.135 181.375V180.432C324.135 180.248 323.986 180.099 323.802 180.099Z" fill="#E6E6E6"/>
<path d="M329.166 180.099H327.151C326.967 180.099 326.818 180.248 326.818 180.432V181.375C326.818 181.559 326.967 181.709 327.151 181.709H329.166C329.35 181.709 329.5 181.559 329.5 181.375V180.432C329.5 180.248 329.35 180.099 329.166 180.099Z" fill="#E6E6E6"/>
<path d="M334.531 180.099H332.515C332.331 180.099 332.182 180.248 332.182 180.432V181.375C332.182 181.559 332.331 181.709 332.515 181.709H334.531C334.715 181.709 334.864 181.559 334.864 181.375V180.432C334.864 180.248 334.715 180.099 334.531 180.099Z" fill="#E6E6E6"/>
<path d="M339.895 180.099H337.879C337.695 180.099 337.546 180.248 337.546 180.432V181.375C337.546 181.559 337.695 181.709 337.879 181.709H339.895C340.079 181.709 340.228 181.559 340.228 181.375V180.432C340.228 180.248 340.079 180.099 339.895 180.099Z" fill="#E6E6E6"/>
<path d="M345.259 180.099H343.244C343.06 180.099 342.91 180.248 342.91 180.432V181.375C342.91 181.559 343.06 181.709 343.244 181.709H345.259C345.443 181.709 345.593 181.559 345.593 181.375V180.432C345.593 180.248 345.443 180.099 345.259 180.099Z" fill="#E6E6E6"/>
<path d="M350.624 180.099H348.608C348.424 180.099 348.275 180.248 348.275 180.432V181.375C348.275 181.559 348.424 181.709 348.608 181.709H350.624C350.808 181.709 350.957 181.559 350.957 181.375V180.432C350.957 180.248 350.808 180.099 350.624 180.099Z" fill="#E6E6E6"/>
<path d="M355.988 180.099H353.972C353.788 180.099 353.639 180.248 353.639 180.432V181.375C353.639 181.559 353.788 181.709 353.972 181.709H355.988C356.172 181.709 356.321 181.559 356.321 181.375V180.432C356.321 180.248 356.172 180.099 355.988 180.099Z" fill="#E6E6E6"/>
<path d="M361.352 180.099H359.337C359.153 180.099 359.003 180.248 359.003 180.432V181.375C359.003 181.559 359.153 181.709 359.337 181.709H361.352C361.536 181.709 361.686 181.559 361.686 181.375V180.432C361.686 180.248 361.536 180.099 361.352 180.099Z" fill="#E6E6E6"/>
<path d="M366.717 180.099H364.701C364.517 180.099 364.368 180.248 364.368 180.432V181.375C364.368 181.559 364.517 181.709 364.701 181.709H366.717C366.901 181.709 367.05 181.559 367.05 181.375V180.432C367.05 180.248 366.901 180.099 366.717 180.099Z" fill="#E6E6E6"/>
<path d="M372.081 180.099H370.065C369.881 180.099 369.732 180.248 369.732 180.432V181.375C369.732 181.559 369.881 181.709 370.065 181.709H372.081C372.265 181.709 372.414 181.559 372.414 181.375V180.432C372.414 180.248 372.265 180.099 372.081 180.099Z" fill="#E6E6E6"/>
<path d="M377.445 180.099H375.43C375.246 180.099 375.096 180.248 375.096 180.432V181.375C375.096 181.559 375.246 181.709 375.43 181.709H377.445C377.629 181.709 377.779 181.559 377.779 181.375V180.432C377.779 180.248 377.629 180.099 377.445 180.099Z" fill="#E6E6E6"/>
<path d="M382.81 180.099H380.794C380.61 180.099 380.461 180.248 380.461 180.432V181.375C380.461 181.559 380.61 181.709 380.794 181.709H382.81C382.994 181.709 383.143 181.559 383.143 181.375V180.432C383.143 180.248 382.994 180.099 382.81 180.099Z" fill="#E6E6E6"/>
<path d="M388.174 180.099H386.158C385.974 180.099 385.825 180.248 385.825 180.432V181.375C385.825 181.559 385.974 181.709 386.158 181.709H388.174C388.358 181.709 388.507 181.559 388.507 181.375V180.432C388.507 180.248 388.358 180.099 388.174 180.099Z" fill="#E6E6E6"/>
<path d="M393.538 180.099H391.523C391.339 180.099 391.189 180.248 391.189 180.432V181.375C391.189 181.559 391.339 181.709 391.523 181.709H393.538C393.722 181.709 393.872 181.559 393.872 181.375V180.432C393.872 180.248 393.722 180.099 393.538 180.099Z" fill="#E6E6E6"/>
<path d="M398.903 180.099H396.887C396.703 180.099 396.554 180.248 396.554 180.432V181.375C396.554 181.559 396.703 181.709 396.887 181.709H398.903C399.087 181.709 399.236 181.559 399.236 181.375V180.432C399.236 180.248 399.087 180.099 398.903 180.099Z" fill="#E6E6E6"/>
<path d="M404.267 180.099H402.251C402.067 180.099 401.918 180.248 401.918 180.432V181.375C401.918 181.559 402.067 181.709 402.251 181.709H404.267C404.451 181.709 404.6 181.559 404.6 181.375V180.432C404.6 180.248 404.451 180.099 404.267 180.099Z" fill="#E6E6E6"/>
<path d="M368.326 183.318H347.535C347.351 183.318 347.202 183.467 347.202 183.651V184.594C347.202 184.778 347.351 184.928 347.535 184.928H368.326C368.51 184.928 368.659 184.778 368.659 184.594V183.651C368.659 183.467 368.51 183.318 368.326 183.318Z" fill="#E6E6E6"/>
<path d="M413.319 64.782V116.353C413.319 119.806 411.947 123.118 409.505 125.56C407.063 128.002 403.752 129.375 400.299 129.375H335.764C333.223 129.376 330.738 128.633 328.614 127.239C326.49 125.845 324.819 123.86 323.809 121.529C323.47 120.758 323.212 119.955 323.037 119.132C324.409 119.663 325.868 119.934 327.339 119.931H391.874C395.056 119.926 398.106 118.66 400.356 116.41C402.606 114.159 403.872 111.108 403.877 107.926V56.3554C403.879 54.8842 403.609 53.4254 403.078 52.0533C403.901 52.2277 404.704 52.4863 405.474 52.8249C407.805 53.8358 409.79 55.5063 411.184 57.6308C412.577 59.7553 413.32 62.241 413.319 64.782Z" fill="#F2F2F2"/>
<path d="M172.559 269.962L166.158 273.926L147.3 250.742L156.747 244.893L172.559 269.962Z" fill="#FFB6B6"/>
<path d="M178.085 278.242L172.936 280.541L169.846 276.09L169.663 282.002L156.006 288.1C155.352 288.392 154.621 288.467 153.921 288.315C153.22 288.162 152.587 287.79 152.113 287.252C151.639 286.714 151.35 286.038 151.287 285.324C151.224 284.61 151.391 283.894 151.764 283.282L159.307 270.88L157.113 265.964L168.89 261.528L178.085 278.242Z" fill="#E6E6E6"/>
<path d="M154.627 265.502L165.438 255.024C157.406 235.2 156.765 222.913 145.63 198.939C172.048 204.343 190.936 204.014 212.784 199.169C220.181 197.554 239.265 182.81 237.696 175.25C237.623 174.897 237.536 174.547 237.436 174.2C235.091 166.203 236.743 153.956 231.666 145.081C222.275 141.54 208.007 153.498 196.845 160.787C191.464 164.302 195.403 169.092 191.383 170.347L175.974 175.35L138.168 169.243C136.34 168.966 134.477 169.054 132.683 169.501C130.89 169.947 129.203 170.745 127.72 171.847C126.236 172.949 124.985 174.333 124.039 175.921C123.093 177.509 122.47 179.268 122.207 181.097C122.143 181.508 122.097 181.921 122.068 182.336C123.808 191.967 125.621 201.345 127.573 210.247C128.203 213.121 127.14 218.63 129.509 218.712C131.879 218.794 130.925 224.491 131.663 227.277C136.206 244.426 139.08 252.726 154.627 265.502Z" fill="#0F172A"/>
<path d="M133.936 311.461L127.267 307.98L137.818 280.026L147.66 285.164L133.936 311.461Z" fill="#FFB6B6"/>
<path d="M132.824 290.592L143.517 297.955C156.623 278.999 165.132 253.668 171.469 225.325C196.143 214.559 217.734 202.243 232.779 185.723C235.25 182.953 236.545 179.33 236.391 175.621C236.237 171.913 234.645 168.41 231.953 165.855C231.69 165.608 231.418 165.371 231.137 165.145C224.62 159.953 210.147 162.941 200.896 158.601L184.37 181.477L186.27 186.805L180.521 189.605L175.667 191.968L170.11 194.673L151.896 203.542C150.244 204.367 148.773 205.512 147.566 206.909C146.359 208.306 145.44 209.929 144.863 211.683C144.286 213.437 144.062 215.288 144.204 217.129C144.346 218.97 144.851 220.764 145.69 222.409C145.874 222.782 146.074 223.146 146.289 223.502L139.524 257.208C139.524 257.208 141.386 263.076 138.457 262.527C135.528 261.978 137.124 269.168 137.124 269.168L132.824 290.592Z" fill="#0F172A"/>
<path d="M129.779 324.486L124.373 322.161L125.747 316.886L120.937 320.683L106.599 314.518C105.912 314.223 105.343 313.726 104.976 313.1C104.609 312.474 104.463 311.752 104.559 311.039C104.655 310.326 104.989 309.66 105.511 309.137C106.032 308.615 106.715 308.264 107.46 308.135L122.533 305.528L124.898 300.614L136.611 306.478L129.779 324.486Z" fill="#E6E6E6"/>
<path d="M275.652 180.321L267.853 161.47L261.708 164.884L265.419 184.061C265.047 185.276 265.022 186.57 265.346 187.799C265.669 189.027 266.329 190.141 267.251 191.015C268.173 191.889 269.32 192.489 270.564 192.747C271.808 193.004 273.099 192.91 274.292 192.474C275.485 192.038 276.533 191.278 277.318 190.278C278.103 189.279 278.594 188.081 278.735 186.819C278.876 185.556 278.663 184.279 278.118 183.131C277.573 181.983 276.72 181.01 275.652 180.321V180.321Z" fill="#FFB6B6"/>
<path d="M144.777 31.2525L156.644 47.846L161.856 43.1279L153.897 25.2911C153.984 24.0235 153.716 22.7569 153.122 21.6337C152.528 20.5104 151.633 19.5749 150.538 18.9325C149.442 18.2901 148.188 17.9661 146.918 17.9971C145.648 18.028 144.412 18.4127 143.349 19.1078C142.286 19.8028 141.437 20.7808 140.899 21.9316C140.361 23.0825 140.155 24.3607 140.303 25.6225C140.451 26.8843 140.949 28.0797 141.739 29.0743C142.53 30.0688 143.582 30.8232 144.777 31.2525H144.777Z" fill="#FFB6B6"/>
<path d="M196.845 146C187.5 173.5 218.869 174.382 233.715 168.299C236.314 167.233 245.257 163.715 239.144 158.837C233.032 153.958 239.853 159.418 240.014 156.242C240.122 154.119 238.478 149.462 240.193 149.661C241.908 149.861 242.892 144.901 239.158 143.637C237.859 143.174 236.72 142.349 235.873 141.261C235.027 140.172 234.508 138.865 234.378 137.492C234.021 124.403 238.453 110.738 238.453 110.738L256.545 156.993C256.545 156.993 256.411 164.995 258.718 162.55C261.025 160.104 260.857 168.019 260.857 168.019C260.857 168.019 264.288 170.414 262.315 171.746C260.343 173.079 264.439 177.176 264.439 177.176L273.998 176.493C273.998 176.493 273.848 169.391 272.216 167.821C270.584 166.25 271.386 163.779 271.386 163.779C271.386 163.779 268.021 160.648 269.985 156.962C271.95 153.276 255.681 87.3352 255.681 87.3352C255.029 84.1627 253.513 81.2322 251.3 78.8677C249.087 76.5032 246.263 74.7967 243.141 73.937L232.817 71.094L230.984 63.8192H216.447L213.915 68.5993L190.701 66.5507C190.701 66.5507 167.731 45.648 168.852 44.0159C169.974 42.3837 166.413 38.5626 166.413 38.5626C166.413 38.5626 163.372 37.5672 165.088 37.0357C166.804 36.5042 163.56 35.2755 163.56 35.2755C163.56 35.2755 160.556 34.486 161.973 33.4465C163.39 32.407 157.245 31.7241 157.245 31.7241L149.272 38.2302L150.884 40.963C150.884 40.963 149.901 44.6843 151.183 43.3258C152.466 41.9673 152.707 45.9097 152.707 45.9097C152.707 45.9097 153.362 50.2268 157.245 51.5275C161.128 52.8281 164.073 65.1849 164.073 65.1849L196.845 92.4999C191.854 98.23 193.042 104.222 197.464 110.351L196.845 146Z" fill="#0F172A"/>
<path d="M223.387 58.9857C232.081 58.9857 239.129 51.9368 239.129 43.2416C239.129 34.5464 232.081 27.4975 223.387 27.4975C214.693 27.4975 207.646 34.5464 207.646 43.2416C207.646 51.9368 214.693 58.9857 223.387 58.9857Z" fill="#FFB6B6"/>
<path d="M237.129 38.5529C236.726 38.669 230.813 39.4406 228.253 39.9186C225.74 40.3898 225.303 37.1871 223.248 37.7881C223.249 37.7741 223.247 37.76 223.241 37.7471C222.923 36.0501 222.378 34.4035 221.623 32.8509C221.897 34.3379 221.936 35.8587 221.739 37.3579C221.738 37.3969 221.733 37.4357 221.725 37.4739C221.719 37.5422 221.705 37.6037 221.698 37.672C219.527 36.7159 218.148 37.5695 216.646 37.87C214.966 38.2046 213.655 38.9421 214.597 44.6987C216.53 56.5398 226.58 60.7667 224.839 68.5993C224.497 70.1494 223.637 72.0888 222.558 72.5736C222.24 70.8767 221.696 69.23 220.94 67.6774C221.214 69.1644 221.253 70.6852 221.056 72.1844C219.384 70.3748 218.175 64.0514 212.549 59.0391C211.163 57.8099 204.219 50.5168 203.386 48.796C203.642 50.1718 203.766 51.569 203.755 52.9683C203.757 53.9049 203.693 54.8404 203.564 55.7681C203.564 55.8279 203.557 55.8874 203.543 55.9457C203.537 56.0549 203.516 56.1505 203.502 56.253C203.489 56.369 203.468 56.4783 203.448 56.5944C201.174 56.2666 199.16 55.8705 198.211 54.9418C193.596 50.4485 199.228 41.6941 202.308 33.7728C206.711 22.4302 219.5 20.9211 220.742 20.7982C226.218 20.2451 235.47 21.4196 238.494 27.6269C240.611 31.9768 239.259 37.9383 237.129 38.5529Z" fill="#2F2E41"/>
<path d="M203.936 41.1131L215.339 23.3719C212.606 21.7852 209.494 20.9688 206.334 21.0094C204.76 21.0422 203.21 21.4064 201.785 22.0784C200.361 22.7504 199.094 23.7151 198.067 24.9096C195.738 27.8045 195.338 31.8967 196.211 35.5083C196.512 36.7556 202.251 32.3668 200.885 34.4154C199.764 36.0194 197.931 42.7612 197.471 44.6585C196.731 47.7122 194.697 50.8468 196.509 53.4133C198.652 56.4483 202.477 57.9569 206.188 58.1101C209.9 58.2633 213.554 57.2345 217.081 56.0692L203.936 41.1131Z" fill="#2F2E41"/>
<path d="M208.317 40.4134C208.153 40.4132 207.994 40.3535 207.87 40.2453C207.745 40.1371 207.665 39.9877 207.642 39.8246C207.619 39.6615 207.656 39.4956 207.746 39.3577C207.836 39.2197 207.973 39.1188 208.131 39.0737C208.31 38.7783 208.237 37.5349 208.178 36.5302C207.956 32.7581 207.584 26.4449 213.712 22.1832C213.861 22.0799 214.044 22.0398 214.223 22.0718C214.401 22.1038 214.559 22.2053 214.662 22.354C214.766 22.5026 214.806 22.6862 214.774 22.8645C214.742 23.0427 214.64 23.2009 214.492 23.3043C208.992 27.1291 209.322 32.7384 209.541 36.4499C209.666 38.5719 209.756 40.1046 208.469 40.3964C208.419 40.4078 208.368 40.4135 208.317 40.4134Z" fill="#0F172A"/>
<path d="M349.147 82.7701H338.816C338.542 82.7701 338.279 82.6613 338.085 82.4675C337.891 82.2737 337.782 82.0109 337.782 81.7368C337.782 81.4628 337.891 81.1999 338.085 81.0061C338.279 80.8124 338.542 80.7035 338.816 80.7035H349.147C349.421 80.7035 349.684 80.8124 349.878 81.0061C350.072 81.1999 350.18 81.4628 350.18 81.7368C350.18 82.0109 350.072 82.2737 349.878 82.4675C349.684 82.6613 349.421 82.7701 349.147 82.7701V82.7701Z" fill="#0F172A"/>
<path d="M367.744 82.7701H357.413C357.277 82.7701 357.143 82.7434 357.017 82.6915C356.892 82.6396 356.778 82.5634 356.682 82.4675C356.586 82.3715 356.51 82.2576 356.458 82.1323C356.406 82.0069 356.379 81.8725 356.379 81.7368C356.379 81.6011 356.406 81.4667 356.458 81.3414C356.51 81.216 356.586 81.1021 356.682 81.0061C356.778 80.9102 356.892 80.8341 357.017 80.7821C357.143 80.7302 357.277 80.7035 357.413 80.7035H367.744C367.88 80.7035 368.014 80.7302 368.14 80.7821C368.265 80.8341 368.379 80.9102 368.475 81.0061C368.571 81.1021 368.647 81.216 368.699 81.3414C368.751 81.4667 368.777 81.6011 368.777 81.7368C368.777 81.8725 368.751 82.0069 368.699 82.1323C368.647 82.2576 368.571 82.3715 368.475 82.4675C368.379 82.5634 368.265 82.6396 368.14 82.6915C368.014 82.7434 367.88 82.7701 367.744 82.7701Z" fill="#0F172A"/>
<path d="M377.043 91.0368H366.711C366.575 91.0368 366.441 91.01 366.316 90.9581C366.19 90.9062 366.076 90.8301 365.98 90.7341C365.885 90.6382 365.808 90.5242 365.757 90.3989C365.705 90.2735 365.678 90.1391 365.678 90.0034C365.678 89.8677 365.705 89.7333 365.757 89.608C365.808 89.4826 365.885 89.3687 365.98 89.2727C366.076 89.1768 366.19 89.1007 366.316 89.0487C366.441 88.9968 366.575 88.9701 366.711 88.9701H377.043C377.178 88.9701 377.313 88.9968 377.438 89.0487C377.563 89.1007 377.677 89.1768 377.773 89.2727C377.869 89.3687 377.945 89.4826 377.997 89.608C378.049 89.7333 378.076 89.8677 378.076 90.0034C378.076 90.1391 378.049 90.2735 377.997 90.3989C377.945 90.5242 377.869 90.6382 377.773 90.7341C377.677 90.8301 377.563 90.9062 377.438 90.9581C377.313 91.01 377.178 91.0368 377.043 91.0368Z" fill="#0F172A"/>
<path d="M358.503 91.0368H338.816C338.542 91.0368 338.279 90.9279 338.085 90.7341C337.891 90.5403 337.782 90.2775 337.782 90.0034C337.782 89.7294 337.891 89.4665 338.085 89.2727C338.279 89.079 338.542 88.9701 338.816 88.9701H358.503C358.777 88.9701 359.04 89.079 359.233 89.2727C359.427 89.4665 359.536 89.7294 359.536 90.0034C359.536 90.2775 359.427 90.5403 359.233 90.7341C359.04 90.9279 358.777 91.0368 358.503 91.0368V91.0368Z" fill="#0F172A"/>
<path d="M395.697 82.7701H376.009C375.735 82.7701 375.473 82.6613 375.279 82.4675C375.085 82.2737 374.976 82.0109 374.976 81.7368C374.976 81.4628 375.085 81.1999 375.279 81.0061C375.473 80.8124 375.735 80.7035 376.009 80.7035H395.697C395.832 80.7035 395.967 80.7302 396.092 80.7821C396.217 80.8341 396.331 80.9102 396.427 81.0061C396.523 81.1021 396.599 81.216 396.651 81.3414C396.703 81.4667 396.73 81.6011 396.73 81.7368C396.73 81.8725 396.703 82.0069 396.651 82.1323C396.599 82.2576 396.523 82.3715 396.427 82.4675C396.331 82.5634 396.217 82.6396 396.092 82.6915C395.967 82.7434 395.832 82.7701 395.697 82.7701Z" fill="#0F172A"/>
<path d="M356.221 67.116H336.533C336.397 67.1163 336.263 67.0899 336.137 67.0381C336.012 66.9863 335.897 66.9103 335.801 66.8143C335.705 66.7183 335.629 66.6043 335.576 66.4787C335.524 66.3532 335.498 66.2186 335.498 66.0827C335.498 65.9467 335.524 65.8121 335.576 65.6866C335.629 65.5611 335.705 65.447 335.801 65.351C335.897 65.255 336.012 65.179 336.137 65.1272C336.263 65.0754 336.397 65.049 336.533 65.0493H356.221C356.495 65.0493 356.757 65.1582 356.951 65.352C357.145 65.5458 357.254 65.8086 357.254 66.0827C357.254 66.3567 357.145 66.6195 356.951 66.8133C356.757 67.0071 356.495 67.116 356.221 67.116V67.116Z" fill="#0F172A"/>
<path d="M357.839 73.1531C357.646 73.1532 357.458 73.093 357.301 72.981C357.144 72.8689 357.026 72.7106 356.964 72.5281C356.901 72.3457 356.897 72.1483 356.952 71.9634C357.007 71.7785 357.119 71.6155 357.271 71.4971L362.312 67.5781C362.515 67.4206 362.682 67.2228 362.804 66.9971C362.926 66.7714 363 66.5228 363.021 66.2671C363.042 66.0114 363.01 65.754 362.927 65.5114C362.843 65.2688 362.71 65.0462 362.536 64.8577L358.304 60.2752C358.221 60.186 358.157 60.0814 358.115 59.9674C358.073 59.8533 358.054 59.7322 358.059 59.6107C358.063 59.4893 358.092 59.37 358.143 59.2597C358.194 59.1493 358.266 59.0501 358.355 58.9676C358.444 58.8851 358.549 58.821 358.663 58.779C358.777 58.7369 358.898 58.7177 359.02 58.7225C359.141 58.7273 359.26 58.756 359.371 58.8069C359.481 58.8577 359.58 58.9299 359.663 59.0191L365.948 65.8238C366.035 65.9179 366.101 66.0291 366.143 66.1503C366.185 66.2714 366.201 66.3999 366.19 66.5277C366.18 66.6554 366.143 66.7796 366.082 66.8923C366.021 67.005 365.937 67.1038 365.836 67.1825L358.407 72.9584C358.245 73.0847 358.045 73.1532 357.839 73.1531Z" fill="#0F172A"/>
<path d="M335.537 73.1531C335.73 73.1532 335.918 73.093 336.075 72.981C336.232 72.8689 336.35 72.7106 336.413 72.5281C336.475 72.3457 336.479 72.1483 336.424 71.9634C336.369 71.7785 336.258 71.6155 336.106 71.4971L331.064 67.5781C330.862 67.4206 330.694 67.2228 330.572 66.9971C330.45 66.7714 330.376 66.5228 330.355 66.2671C330.334 66.0114 330.366 65.754 330.45 65.5114C330.533 65.2688 330.666 65.0462 330.841 64.8577L335.073 60.2752C335.155 60.186 335.219 60.0814 335.261 59.9674C335.303 59.8533 335.323 59.7322 335.318 59.6107C335.313 59.4893 335.284 59.37 335.233 59.2597C335.183 59.1493 335.11 59.0501 335.021 58.9676C334.932 58.8851 334.827 58.821 334.713 58.779C334.599 58.7369 334.478 58.7177 334.357 58.7225C334.235 58.7273 334.116 58.756 334.006 58.8069C333.896 58.8577 333.796 58.9299 333.714 59.0191L327.429 65.8238C327.342 65.9179 327.275 66.0291 327.234 66.1503C327.192 66.2714 327.176 66.3999 327.186 66.5277C327.197 66.6554 327.234 66.7796 327.295 66.8923C327.356 67.005 327.439 67.1038 327.54 67.1825L334.97 72.9584C335.132 73.0847 335.332 73.1532 335.537 73.1531V73.1531Z" fill="#0F172A"/>
<path d="M366.398 108.758H346.711C346.437 108.758 346.174 108.649 345.98 108.455C345.787 108.261 345.678 107.998 345.678 107.724C345.678 107.45 345.787 107.187 345.98 106.994C346.174 106.8 346.437 106.691 346.711 106.691H366.398C366.672 106.691 366.935 106.8 367.129 106.994C367.322 107.187 367.431 107.45 367.431 107.724C367.431 107.998 367.322 108.261 367.129 108.455C366.935 108.649 366.672 108.758 366.398 108.758V108.758Z" fill="#0F172A"/>
<path d="M369.867 113.869C369.674 113.869 369.486 113.809 369.329 113.697C369.172 113.585 369.054 113.427 368.992 113.244C368.929 113.062 368.925 112.864 368.98 112.68C369.035 112.495 369.147 112.332 369.299 112.213L374.34 108.294C374.542 108.137 374.71 107.939 374.832 107.713C374.954 107.488 375.028 107.239 375.049 106.983C375.07 106.728 375.038 106.47 374.954 106.228C374.871 105.985 374.738 105.762 374.564 105.574L370.332 100.991C370.249 100.902 370.185 100.798 370.143 100.684C370.101 100.57 370.082 100.448 370.087 100.327C370.091 100.205 370.12 100.086 370.171 99.9758C370.222 99.8655 370.294 99.7662 370.383 99.6838C370.472 99.6013 370.577 99.5372 370.691 99.4951C370.805 99.4531 370.926 99.4339 371.047 99.4387C371.169 99.4435 371.288 99.4721 371.398 99.523C371.509 99.5739 371.608 99.646 371.69 99.7353L377.975 106.54C378.062 106.634 378.129 106.745 378.171 106.866C378.212 106.988 378.229 107.116 378.218 107.244C378.208 107.372 378.171 107.496 378.11 107.608C378.049 107.721 377.965 107.82 377.864 107.899L370.435 113.675C370.272 113.801 370.073 113.869 369.867 113.869Z" fill="#0F172A"/>
<path d="M335.537 113.869C335.73 113.869 335.918 113.809 336.075 113.697C336.232 113.585 336.35 113.427 336.413 113.244C336.475 113.062 336.479 112.864 336.424 112.68C336.369 112.495 336.258 112.332 336.106 112.213L331.064 108.294C330.862 108.137 330.694 107.939 330.572 107.713C330.45 107.488 330.376 107.239 330.355 106.983C330.334 106.728 330.366 106.47 330.45 106.228C330.533 105.985 330.666 105.762 330.841 105.574L335.073 100.991C335.239 100.811 335.327 100.572 335.318 100.327C335.308 100.082 335.201 99.8503 335.021 99.6838C334.841 99.5172 334.602 99.429 334.357 99.4387C334.112 99.4484 333.88 99.555 333.714 99.7353L327.429 106.54C327.342 106.634 327.275 106.745 327.234 106.866C327.192 106.988 327.176 107.116 327.186 107.244C327.197 107.372 327.234 107.496 327.295 107.608C327.356 107.721 327.439 107.82 327.54 107.899L334.97 113.675C335.132 113.801 335.332 113.869 335.537 113.869V113.869Z" fill="#0F172A"/>
<path d="M337.294 110.974L341.432 101.506C341.543 101.256 341.748 101.06 342.003 100.961C342.257 100.862 342.541 100.868 342.791 100.977C343.041 101.087 343.238 101.291 343.338 101.545C343.439 101.799 343.434 102.083 343.326 102.334L339.187 111.802C339.134 111.927 339.055 112.04 338.958 112.135C338.86 112.229 338.745 112.304 338.618 112.354C338.491 112.404 338.356 112.428 338.22 112.426C338.084 112.423 337.95 112.394 337.825 112.339C337.7 112.285 337.588 112.206 337.493 112.108C337.399 112.01 337.325 111.894 337.276 111.767C337.227 111.64 337.203 111.505 337.206 111.369C337.209 111.233 337.239 111.098 337.294 110.974V110.974Z" fill="#0F172A"/>
</g>
<defs>
<radialGradient id="paint0_radial_127_78" cx="0" cy="0" r="1" gradientUnits="userSpaceOnUse" gradientTransform="translate(296 177.5) rotate(0.0650348) scale(440.5 734.581)">
<stop offset="0.210039" stop-color="#FAFAFA" stop-opacity="0.92"/>
<stop offset="0.912815" stop-opacity="0"/>
</radialGradient>
<clipPath id="clip0_127_78">
<rect width="490" height="310" fill="white" transform="translate(47 18)"/>
</clipPath>
</defs>
</svg>
